<svg xmlns="http://www.w3.org/2000/svg" width="1143.026" height="1142.726" viewBox="0 0 1143.026 1142.726"><g transform="translate(-377.154 -303.837)"><g transform="matrix(-0.992, -0.129, 0.129, -0.992, 1722.51, 2716.75)"><text transform="translate(948.965 1302.76)" fill="#fff" font-size="160" font-family="Arial-BoldMT, Arial" font-weight="700"><tspan x="0" y="0">E</tspan></text></g><g transform="translate(1101.36 2810.14) rotate(-156.576)"><text transform="translate(841.958 1290.91)" fill="#fff" font-size="160" font-family="Arial-BoldMT, Arial" font-weight="700"><tspan x="0" y="0">M</tspan></text></g><g transform="matrix(-0.767, -0.642, 0.642, -0.767, 478.363, 2645.73)"><text transform="translate(719.639 1236)" fill="#fff" font-size="160" font-family="Arial-BoldMT, Arial" font-weight="700"><tspan x="0" y="0">P</tspan></text></g><g transform="matrix(-0.603, -0.798, 0.798, -0.603, 96.066, 2400.23)"><text transform="translate(645.103 1176.22)" fill="#fff" font-size="160" font-family="Arial-BoldMT, Arial" font-weight="700"><tspan x="0" y="0">A</tspan></text></g><g transform="translate(-175.616 2073.19) rotate(-114.256)"><text transform="translate(582.081 1093.34)" fill="#fff" font-size="160" font-family="Arial-BoldMT, Arial" font-weight="700"><tspan x="0" y="0">T</tspan></text></g><g transform="matrix(-0.171, -0.985, 0.985, -0.171, -356.39, 1708.29)"><text transform="translate(540.756 1004.13)" fill="#fff" font-size="160" font-family="Arial-BoldMT, Arial" font-weight="700"><tspan x="0" y="0">H</tspan></text></g><g transform="translate(-410.781 1330.55) rotate(-84.918)"><text transform="translate(521.672 889.741)" fill="#fff" font-size="160" font-family="Arial-BoldMT, Arial" font-weight="700"><tspan x="0" y="0">Y</tspan></text></g><g transform="translate(-341.978 838.483) rotate(-60.218)"><text transform="translate(551.975 714.105)" fill="#fff" font-size="160" font-family="Arial-BoldMT, Arial" font-weight="700"><tspan x="0" y="0">C</tspan></text></g><g transform="translate(-254.653 594.229) rotate(-43.934)"><text transform="translate(609.285 612.784)" fill="#fff" font-size="160" font-family="Arial-BoldMT, Arial" font-weight="700"><tspan x="0" y="0">R</tspan></text></g><g transform="matrix(0.871, -0.492, 0.492, 0.871, -172.092, 409.767)"><text transform="translate(692.745 531.957)" fill="#fff" font-size="160" font-family="Arial-BoldMT, Arial" font-weight="700"><tspan x="0" y="0">E</tspan></text></g><g transform="translate(-95.52 214.594) rotate(-14.666)"><text transform="translate(786.038 478.436)" fill="#fff" font-size="160" font-family="Arial-BoldMT, Arial" font-weight="700"><tspan x="0" y="0">A</tspan></text></g><g transform="matrix(0.999, -0.032, 0.032, 0.999, -13.879, 28.335)"><text transform="translate(886.666 451.869)" fill="#fff" font-size="160" font-family="Arial-BoldMT, Arial" font-weight="700"><tspan x="0" y="0">T</tspan></text></g><g transform="translate(69.344 -127.898) rotate(7.705)"><text transform="translate(984.323 450.933)" fill="#fff" font-size="160" font-family="Arial-BoldMT, Arial" font-weight="700"><tspan x="0" y="0">I</tspan></text></g><g transform="translate(189.592 -294.522) rotate(17.913)"><text transform="translate(1029.14 454.206)" fill="#fff" font-size="160" font-family="Arial-BoldMT, Arial" font-weight="700"><tspan x="0" y="0">V</tspan></text></g><g transform="translate(365.849 -476.031) rotate(28.221)"><text transform="translate(1129.76 489.666)" fill="#fff" font-size="160" font-family="Arial-BoldMT, Arial" font-weight="700"><tspan x="0" y="0">I</tspan></text></g><g transform="matrix(0.79, 0.613, -0.613, 0.79, 557.208, -610.348)"><text transform="translate(1170.37 508.947)" fill="#fff" font-size="160" font-family="Arial-BoldMT, Arial" font-weight="700"><tspan x="0" y="0">T</tspan></text></g><g transform="translate(916.228 -762.228) rotate(51.489)"><text transform="translate(1248.43 568.883)" fill="#fff" font-size="160" font-family="Arial-BoldMT, Arial" font-weight="700"><tspan x="0" y="0">Y</tspan></text></g><g transform="translate(1719.32 -763.706) rotate(76.093)"><text transform="translate(1347.59 716.61)" fill="#fff" font-size="160" font-family="Arial-BoldMT, Arial" font-weight="700"><tspan x="0" y="0">H</tspan></text></g><g transform="translate(2242.57 -522.196) rotate(91.59)"><text transform="translate(1375.24 829.501)" fill="#fff" font-size="160" font-family="Arial-BoldMT, Arial" font-weight="700"><tspan x="0" y="0">U</tspan></text></g><g transform="matrix(-0.317, 0.948, -0.948, -0.317, 2705.8, -56.246)"><text transform="translate(1373.15 946.016)" fill="#fff" font-size="160" font-family="Arial-BoldMT, Arial" font-weight="700"><tspan x="0" y="0">M</tspan></text></g><g transform="translate(2923.47 474.544) rotate(120.604)"><text transform="translate(1326.41 1070.97)" fill="#fff" font-size="160" font-family="Arial-BoldMT, Arial" font-weight="700"><tspan x="0" y="0">I</tspan></text></g><g transform="translate(2999.2 842.32) rotate(130.605)"><text transform="translate(1305.91 1110.82)" fill="#fff" font-size="160" font-family="Arial-BoldMT, Arial" font-weight="700"><tspan x="0" y="0">L</tspan></text></g><g transform="translate(2952.93 1284.23) rotate(139.694)"><text transform="translate(1240.81 1183.97)" fill="#fff" font-size="160" font-family="Arial-BoldMT, Arial" font-weight="700"><tspan x="0" y="0">I</tspan></text></g><g transform="translate(2867.58 1640.05) rotate(149.224)"><text transform="translate(1208.1 1214.64)" fill="#fff" font-size="160" font-family="Arial-BoldMT, Arial" font-weight="700"><tspan x="0" y="0">T</tspan></text></g><g transform="matrix(-0.957, 0.291, -0.291, -0.957, 2567.8, 2148.37)"><text transform="translate(1123.97 1265.34)" fill="#fff" font-size="160" font-family="Arial-BoldMT, Arial" font-weight="700"><tspan x="0" y="0">Y</tspan></text></g></g></svg>