<svg xmlns="http://www.w3.org/2000/svg" width="1187.645" height="1198.776" viewBox="0 0 1187.645 1198.776">
  <g id="Untitled_2" data-name="Untitled 2" transform="translate(-379.464 -302.8)">
    <g id="Group_62" data-name="Group 62" transform="translate(1772.05 2824.34) rotate(-172.96)">
      <text id="E" transform="translate(972.887 1357.67)" fill="#fff" font-size="160" font-family="Arial-BoldMT, Arial" font-weight="700"><tspan x="0" y="0">E</tspan></text>
    </g>
    <g id="Group_63" data-name="Group 63" transform="matrix(-0.925, -0.38, 0.38, -0.925, 1153.93, 2920.73)">
      <text id="M" transform="translate(865.612 1346.33)" fill="#fff" font-size="160" font-family="Arial-BoldMT, Arial" font-weight="700"><tspan x="0" y="0">M</tspan></text>
    </g>
    <g id="Group_64" data-name="Group 64" transform="translate(530.591 2770.5) rotate(-141.987)">
      <text id="P" transform="translate(742.453 1293.87)" fill="#fff" font-size="160" font-family="Arial-BoldMT, Arial" font-weight="700"><tspan x="0" y="0">P</tspan></text>
    </g>
    <g id="Group_65" data-name="Group 65" transform="matrix(-0.64, -0.769, 0.769, -0.64, 142.018, 2540.01)">
      <text id="A" transform="translate(666.279 1236.72)" fill="#fff" font-size="160" font-family="Arial-BoldMT, Arial" font-weight="700"><tspan x="0" y="0">A</tspan></text>
    </g>
    <g id="Group_66" data-name="Group 66" transform="translate(-145.744 2225.38) rotate(-117.722)">
      <text id="T" transform="translate(599.384 1156.72)" fill="#fff" font-size="160" font-family="Arial-BoldMT, Arial" font-weight="700"><tspan x="0" y="0">T</tspan></text>
    </g>
    <g id="Group_67" data-name="Group 67" transform="matrix(-0.246, -0.969, 0.969, -0.246, -348.506, 1869.24)">
      <text id="H" transform="translate(552.809 1070.17)" fill="#fff" font-size="160" font-family="Arial-BoldMT, Arial" font-weight="700"><tspan x="0" y="0">H</tspan></text>
    </g>
    <g id="Group_68" data-name="Group 68" transform="translate(-430.246 1487.18) rotate(-90.27)">
      <text id="Y" transform="translate(524.968 957.701)" fill="#fff" font-size="160" font-family="Arial-BoldMT, Arial" font-weight="700"><tspan x="0" y="0">Y</tspan></text>
    </g>
    <g id="Group_69" data-name="Group 69" transform="translate(-389.366 975.111) rotate(-67.315)">
      <text id="C" transform="translate(537.544 779.937)" fill="#fff" font-size="160" font-family="Arial-BoldMT, Arial" font-weight="700"><tspan x="0" y="0">C</tspan></text>
    </g>
    <g id="Group_70" data-name="Group 70" transform="translate(-306.241 716.586) rotate(-51.976)">
      <text id="R" transform="translate(581.877 672.402)" fill="#fff" font-size="160" font-family="Arial-BoldMT, Arial" font-weight="700"><tspan x="0" y="0">R</tspan></text>
    </g>
    <g id="Group_71" data-name="Group 71" transform="translate(-219.535 531.286) rotate(-38.399)">
      <text id="E-2" data-name="E" transform="translate(653.075 580.86)" fill="#fff" font-size="160" font-family="Arial-BoldMT, Arial" font-weight="700"><tspan x="0" y="0">E</tspan></text>
    </g>
    <g id="Group_72" data-name="Group 72" transform="matrix(0.91, -0.414, 0.414, 0.91, -146.425, 350.82)">
      <text id="A-2" data-name="A" transform="translate(736.935 513.548)" fill="#fff" font-size="160" font-family="Arial-BoldMT, Arial" font-weight="700"><tspan x="0" y="0">A</tspan></text>
    </g>
    <g id="Group_73" data-name="Group 73" transform="translate(-80.222 185.106) rotate(-12.123)">
      <text id="T-2" data-name="T" transform="translate(831.494 470.291)" fill="#fff" font-size="160" font-family="Arial-BoldMT, Arial" font-weight="700"><tspan x="0" y="0">T</tspan></text>
    </g>
    <g id="Group_74" data-name="Group 74" transform="translate(-21.883 48.003) rotate(-2.93)">
      <text id="I" transform="translate(927.547 451.84)" fill="#fff" font-size="160" font-family="Arial-BoldMT, Arial" font-weight="700"><tspan x="0" y="0">I</tspan></text>
    </g>
    <g id="Group_75" data-name="Group 75" transform="translate(58.098 -109.226) rotate(6.63)">
      <text id="V" transform="translate(971.995 446.945)" fill="#fff" font-size="160" font-family="Arial-BoldMT, Arial" font-weight="700"><tspan x="0" y="0">V</tspan></text>
    </g>
    <g id="Group_76" data-name="Group 76" transform="translate(175.419 -286.9) rotate(16.487)">
      <text id="I-2" data-name="I" transform="translate(1077.84 461.941)" fill="#fff" font-size="160" font-family="Arial-BoldMT, Arial" font-weight="700"><tspan x="0" y="0">I</tspan></text>
    </g>
    <g id="Group_77" data-name="Group 77" transform="matrix(0.901, 0.433, -0.433, 0.901, 315.317, -439.057)">
      <text id="T-3" data-name="T" transform="translate(1121.43 472.623)" fill="#fff" font-size="160" font-family="Arial-BoldMT, Arial" font-weight="700"><tspan x="0" y="0">T</tspan></text>
    </g>
    <g id="Group_78" data-name="Group 78" transform="translate(587.494 -643.553) rotate(38.699)">
      <text id="Y-2" data-name="Y" transform="translate(1210.06 514.713)" fill="#fff" font-size="160" font-family="Arial-BoldMT, Arial" font-weight="700"><tspan x="0" y="0">Y</tspan></text>
    </g>
    <g id="Group_79" data-name="Group 79" transform="translate(1272.32 -845.93) rotate(61.976)">
      <text id="D" transform="translate(1340.43 636.291)" fill="#fff" font-size="160" font-family="Arial-BoldMT, Arial" font-weight="700"><tspan x="0" y="0">D</tspan></text>
    </g>
    <g id="Group_80" data-name="Group 80" transform="translate(1776.05 -792.871) rotate(76.071)">
      <text id="E-3" data-name="E" transform="translate(1394.8 738.739)" fill="#fff" font-size="160" font-family="Arial-BoldMT, Arial" font-weight="700"><tspan x="0" y="0">E</tspan></text>
    </g>
    <g id="Group_81" data-name="Group 81" transform="matrix(0.013, 1, -1, 0.013, 2244.37, -589.075)">
      <text id="V-2" data-name="V" transform="translate(1420.69 842.749)" fill="#fff" font-size="160" font-family="Arial-BoldMT, Arial" font-weight="700"><tspan x="0" y="0">V</tspan></text>
    </g>
    <g id="Group_82" data-name="Group 82" transform="translate(2685.57 -205.197) rotate(103.796)">
      <text id="O" transform="translate(1423.24 950.353)" fill="#fff" font-size="160" font-family="Arial-BoldMT, Arial" font-weight="700"><tspan x="0" y="0">O</tspan></text>
    </g>
    <g id="Group_83" data-name="Group 83" transform="translate(2989.16 340.693) rotate(117.851)">
      <text id="T-4" data-name="T" transform="translate(1391.92 1071.02)" fill="#fff" font-size="160" font-family="Arial-BoldMT, Arial" font-weight="700"><tspan x="0" y="0">T</tspan></text>
    </g>
    <g id="Group_84" data-name="Group 84" transform="matrix(-0.6, 0.8, -0.8, -0.6, 3076.25, 774.915)">
      <text id="I-3" data-name="I" transform="translate(1344.4 1156.51)" fill="#fff" font-size="160" font-family="Arial-BoldMT, Arial" font-weight="700"><tspan x="0" y="0">I</tspan></text>
    </g>
    <g id="Group_85" data-name="Group 85" transform="translate(3101 1184.85) rotate(137.537)">
      <text id="O-2" data-name="O" transform="translate(1320.34 1194.81)" fill="#fff" font-size="160" font-family="Arial-BoldMT, Arial" font-weight="700"><tspan x="0" y="0">O</tspan></text>
    </g>
    <g id="Group_86" data-name="Group 86" transform="translate(2905.05 1852.29) rotate(152.716)">
      <text id="N" transform="translate(1227.75 1278.68)" fill="#fff" font-size="160" font-family="Arial-BoldMT, Arial" font-weight="700"><tspan x="0" y="0">N</tspan></text>
    </g>
  </g>
</svg>
