{
  "accessors": [
    {
      "bufferView": 2,
      "componentType": 5126,
      "count": 14947,
      "max": [
        5622.15673828125,
        17739.62890625,
        575.45172119140625
      ],
      "min": [
        -25266.734375,
        -13149.97265625,
        -2003.0289306640625
      ],
      "type": "VEC3"
    },
    {
      "bufferView": 2,
      "byteOffset": 179364,
      "componentType": 5126,
      "count": 14947,
      "max": [
        0.78695845603942871,
        0.70028787851333618,
        0.24198375642299652
      ],
      "min": [
        -0.98611181974411011,
        -0.95931094884872437,
        -0.99999970197677612
      ],
      "type": "VEC3"
    },
    {
      "bufferView": 3,
      "componentType": 5126,
      "count": 14947,
      "max": [
        1,
        0.28235071897506714,
        0.78728604316711426,
        1
      ],
      "min": [
        -0.049800243228673935,
        -0.98623740673065186,
        -0.77557718753814697,
        -1
      ],
      "type": "VEC4"
    },
    {
      "bufferView": 1,
      "componentType": 5126,
      "count": 14947,
      "max": [
        1.0001399517059326,
        0.99993997812271118
      ],
      "min": [
        -1.9999999494757503e-05,
        -9.9999997473787516e-06
      ],
      "type": "VEC2"
    },
    {
      "bufferView": 0,
      "componentType": 5125,
      "count": 89391,
      "max": [
        14946
      ],
      "min": [
        0
      ],
      "type": "SCALAR"
    },
    {
      "bufferView": 2,
      "byteOffset": 358728,
      "componentType": 5126,
      "count": 60,
      "max": [
        8.9442501068115234,
        8.5064001083374023,
        10
      ],
      "min": [
        -8.9442501068115234,
        -8.5064001083374023,
        -10
      ],
      "type": "VEC3"
    },
    {
      "bufferView": 2,
      "byteOffset": 359448,
      "componentType": 5126,
      "count": 60,
      "max": [
        0.98224562406539917,
        0.93417000770568848,
        0.79465383291244507
      ],
      "min": [
        -0.98224562406539917,
        -0.93417000770568848,
        -0.79465383291244507
      ],
      "type": "VEC3"
    },
    {
      "bufferView": 0,
      "byteOffset": 357564,
      "componentType": 5125,
      "count": 60,
      "max": [
        59
      ],
      "min": [
        0
      ],
      "type": "SCALAR"
    }
  ],
  "asset": {
    "extras": {
      "author": "briligg (https://sketchfab.com/briligg)",
      "license": "CC-BY-4.0 (http://creativecommons.org/licenses/by/4.0/)",
      "source": "https://sketchfab.com/models/a9bba843db9046a9adc97172b056f45b",
      "title": "Lalande Crater"
    },
    "generator": "Sketchfab-3.18.7",
    "version": "2.0"
  },
  "bufferViews": [
    {
      "buffer": 0,
      "byteLength": 357804,
      "byteOffset": 0,
      "name": "floatBufferViews",
      "target": 34963
    },
    {
      "buffer": 0,
      "byteLength": 119576,
      "byteOffset": 357804,
      "byteStride": 8,
      "name": "floatBufferViews",
      "target": 34962
    },
    {
      "buffer": 0,
      "byteLength": 360168,
      "byteOffset": 477380,
      "byteStride": 12,
      "name": "floatBufferViews",
      "target": 34962
    },
    {
      "buffer": 0,
      "byteLength": 239152,
      "byteOffset": 837548,
      "byteStride": 16,
      "name": "floatBufferViews",
      "target": 34962
    }
  ],
  "buffers": [
    {
      "byteLength": 1076700,
      "uri": "scene.bin"
    }
  ],
  "extensionsRequired": [
    "KHR_materials_pbrSpecularGlossiness"
  ],
  "extensionsUsed": [
    "KHR_materials_pbrSpecularGlossiness"
  ],
  "images": [
    {
      "uri": "textures/material_diffuse.jpg"
    }
  ],
  "materials": [
    {
      "doubleSided": true,
      "emissiveFactor": [
        0.17386912963965134,
        0.004805923749064355,
        0.004805923749064355
      ],
      "extensions": {
        "KHR_materials_pbrSpecularGlossiness": {
          "diffuseFactor": [
            0.80000007149999997,
            0.0015064625,
            0.080285213899999999,
            1
          ],
          "glossinessFactor": 0.65415396339999998,
          "specularFactor": [
            0,
            0,
            0
          ]
        }
      },
      "name": "icosphere"
    },
    {
      "doubleSided": true,
      "emissiveFactor": [
        0,
        0,
        0
      ],
      "extensions": {
        "KHR_materials_pbrSpecularGlossiness": {
          "diffuseFactor": [
            1,
            1,
            1,
            1
          ],
          "diffuseTexture": {
            "index": 0,
            "texCoord": 0
          },
          "glossinessFactor": 0.10194359760000005,
          "specularFactor": [
            0,
            0,
            0
          ]
        }
      },
      "name": "material"
    }
  ],
  "meshes": [
    {
      "name": "Crater_0",
      "primitives": [
        {
          "attributes": {
            "NORMAL": 1,
            "POSITION": 0,
            "TANGENT": 2,
            "TEXCOORD_0": 3
          },
          "indices": 4,
          "material": 1,
          "mode": 4
        }
      ]
    },
    {
      "name": "Icosphere_0",
      "primitives": [
        {
          "attributes": {
            "NORMAL": 6,
            "POSITION": 5
          },
          "indices": 7,
          "material": 0,
          "mode": 4
        }
      ]
    }
  ],
  "nodes": [
    {
      "children": [
        1
      ],
      "name": "RootNode (gltf orientation matrix)",
      "rotation": [
        -0.70710678118654746,
        -0,
        -0,
        0.70710678118654757
      ]
    },
    {
      "children": [
        2
      ],
      "name": "RootNode (model correction matrix)"
    },
    {
      "children": [
        3,
        5,
        7
      ],
      "name": "Root"
    },
    {
      "children": [
        4
      ],
      "matrix": [
        -0.28273999999999999,
        0.95764000000000016,
        0.054700000000000013,
        0,
        -0.62358000000000002,
        -0.22685000000000002,
        0.74812000000000012,
        0,
        0.72884000000000015,
        0.17741000000000004,
        0.66130000000000011,
        0,
        74.949510000000018,
        25.735619999999997,
        392.24460000000005,
        1
      ],
      "name": "Lamp"
    },
    {
      "name": "Lamp"
    },
    {
      "children": [
        6
      ],
      "matrix": [
        1,
        0,
        0,
        0,
        0,
        1,
        0,
        0,
        0,
        0,
        1,
        0,
        1608.4265100000002,
        206.20859999999999,
        -1.61591,
        1
      ],
      "name": "Crater"
    },
    {
      "mesh": 0,
      "name": "Crater_0"
    },
    {
      "children": [
        8
      ],
      "matrix": [
        1,
        0,
        0,
        0,
        0,
        1,
        0,
        0,
        0,
        0,
        1,
        0,
        1672.55774,
        67.780450000000002,
        181.53114000000002,
        1
      ],
      "name": "Icosphere"
    },
    {
      "mesh": 1,
      "name": "Icosphere_0"
    }
  ],
  "samplers": [
    {
      "magFilter": 9729,
      "minFilter": 9987,
      "wrapS": 10497,
      "wrapT": 10497
    }
  ],
  "scene": 0,
  "scenes": [
    {
      "name": "OSG_Scene",
      "nodes": [
        0
      ]
    }
  ],
  "textures": [
    {
      "sampler": 0,
      "source": 0
    }
  ]
}

