{
  "accessors": [
    {
      "bufferView": 1,
      "componentType": 5126,
      "count": 4714,
      "max": [
        6.9213199615478516,
        17.035863876342773,
        -0.68491899967193604
      ],
      "min": [
        -36.791030883789062,
        -70.405670166015625,
        -30.873752593994141
      ],
      "type": "VEC3"
    },
    {
      "bufferView": 1,
      "byteOffset": 56568,
      "componentType": 5126,
      "count": 4714,
      "max": [
        0.99951761960983276,
        0.99973577260971069,
        0.99945676326751709
      ],
      "min": [
        -0.99996101856231689,
        -0.99979454278945923,
        -0.99977314472198486
      ],
      "type": "VEC3"
    },
    {
      "bufferView": 2,
      "componentType": 5126,
      "count": 4714,
      "max": [
        0.7921568751335144,
        0.729411780834198,
        0.28235295414924622,
        1
      ],
      "min": [
        0.098039217293262482,
        0.17254902422428131,
        0.031372550874948502,
        1
      ],
      "type": "VEC4"
    },
    {
      "bufferView": 0,
      "componentType": 5125,
      "count": 28212,
      "max": [
        4713
      ],
      "min": [
        0
      ],
      "type": "SCALAR"
    },
    {
      "bufferView": 1,
      "byteOffset": 113136,
      "componentType": 5126,
      "count": 45891,
      "max": [
        29.857276916503906,
        17.077033996582031,
        11.009571075439453
      ],
      "min": [
        -57.637279510498047,
        -72.086967468261719,
        -29.325613021850586
      ],
      "type": "VEC3"
    },
    {
      "bufferView": 1,
      "byteOffset": 663828,
      "componentType": 5126,
      "count": 45891,
      "max": [
        0.99993723630905151,
        0.99998998641967773,
        0.99998921155929565
      ],
      "min": [
        -0.99998652935028076,
        -0.99990200996398926,
        -0.99995261430740356
      ],
      "type": "VEC3"
    },
    {
      "bufferView": 2,
      "byteOffset": 75424,
      "componentType": 5126,
      "count": 45891,
      "max": [
        0.55686277151107788,
        0.55686277151107788,
        0.55294120311737061,
        1
      ],
      "min": [
        0.078431375324726105,
        0.062745101749897003,
        0.031372550874948502,
        1
      ],
      "type": "VEC4"
    },
    {
      "bufferView": 0,
      "byteOffset": 112848,
      "componentType": 5125,
      "count": 275454,
      "max": [
        45890
      ],
      "min": [
        0
      ],
      "type": "SCALAR"
    },
    {
      "bufferView": 1,
      "byteOffset": 1214520,
      "componentType": 5126,
      "count": 2211,
      "max": [
        43.062519073486328,
        -31.09516716003418,
        -15.737337112426758
      ],
      "min": [
        28.049039840698242,
        -46.351619720458984,
        -24.805995941162109
      ],
      "type": "VEC3"
    },
    {
      "bufferView": 1,
      "byteOffset": 1241052,
      "componentType": 5126,
      "count": 2211,
      "max": [
        0.99739688634872437,
        0.99920564889907837,
        0.99992465972900391
      ],
      "min": [
        -0.99996614456176758,
        -0.99775677919387817,
        -0.99981409311294556
      ],
      "type": "VEC3"
    },
    {
      "bufferView": 2,
      "byteOffset": 809680,
      "componentType": 5126,
      "count": 2211,
      "max": [
        0.55686277151107788,
        0.52549022436141968,
        0.52549022436141968,
        1
      ],
      "min": [
        0.55294120311737061,
        0.51764708757400513,
        0.51764708757400513,
        1
      ],
      "type": "VEC4"
    },
    {
      "bufferView": 0,
      "byteOffset": 1214664,
      "componentType": 5125,
      "count": 13254,
      "max": [
        2210
      ],
      "min": [
        0
      ],
      "type": "SCALAR"
    },
    {
      "bufferView": 1,
      "byteOffset": 1267584,
      "componentType": 5126,
      "count": 22510,
      "max": [
        34.023796081542969,
        17.248775482177734,
        3.1879880428314209
      ],
      "min": [
        -47.638473510742188,
        -69.967582702636719,
        -29.394924163818359
      ],
      "type": "VEC3"
    },
    {
      "bufferView": 1,
      "byteOffset": 1537704,
      "componentType": 5126,
      "count": 22510,
      "max": [
        0.99998712539672852,
        0.99994766712188721,
        0.99994862079620361
      ],
      "min": [
        -0.99999386072158813,
        -0.99988412857055664,
        -0.9999881386756897
      ],
      "type": "VEC3"
    },
    {
      "bufferView": 2,
      "byteOffset": 845056,
      "componentType": 5126,
      "count": 22510,
      "max": [
        0.81960785388946533,
        0.52549022436141968,
        0.81960785388946533,
        1
      ],
      "min": [
        0.08235294371843338,
        0.08235294371843338,
        0.3333333432674408,
        1
      ],
      "type": "VEC4"
    },
    {
      "bufferView": 0,
      "byteOffset": 1267680,
      "componentType": 5125,
      "count": 134736,
      "max": [
        22509
      ],
      "min": [
        0
      ],
      "type": "SCALAR"
    },
    {
      "bufferView": 1,
      "byteOffset": 1807824,
      "componentType": 5126,
      "count": 508,
      "max": [
        22.234743118286133,
        -36.130943298339844,
        -15.918354988098145
      ],
      "min": [
        18.475351333618164,
        -45.039836883544922,
        -24.89952278137207
      ],
      "type": "VEC3"
    },
    {
      "bufferView": 1,
      "byteOffset": 1813920,
      "componentType": 5126,
      "count": 508,
      "max": [
        0.99996697902679443,
        0.99923473596572876,
        0.99877053499221802
      ],
      "min": [
        -0.99842309951782227,
        -0.99788665771484375,
        -0.99693864583969116
      ],
      "type": "VEC3"
    },
    {
      "bufferView": 2,
      "byteOffset": 1205216,
      "componentType": 5126,
      "count": 508,
      "max": [
        0.55686277151107788,
        0.52549022436141968,
        0.52549022436141968,
        1
      ],
      "min": [
        0.54901963472366333,
        0.51764708757400513,
        0.51764708757400513,
        1
      ],
      "type": "VEC4"
    },
    {
      "bufferView": 0,
      "byteOffset": 1806624,
      "componentType": 5125,
      "count": 3036,
      "max": [
        507
      ],
      "min": [
        0
      ],
      "type": "SCALAR"
    }
  ],
  "asset": {
    "extras": {
      "author": "urbanmasque (https://sketchfab.com/urbanmasque)",
      "license": "CC-BY-4.0 (http://creativecommons.org/licenses/by/4.0/)",
      "source": "https://sketchfab.com/3d-models/astronaut-ad230ec9d8f24bffa7f4a79cc85d5e24",
      "title": "Astronaut"
    },
    "generator": "Sketchfab-4.69.0",
    "version": "2.0"
  },
  "bufferViews": [
    {
      "buffer": 0,
      "byteLength": 1818768,
      "byteOffset": 0,
      "name": "floatBufferViews",
      "target": 34963
    },
    {
      "buffer": 0,
      "byteLength": 1820016,
      "byteOffset": 1818768,
      "byteStride": 12,
      "name": "floatBufferViews",
      "target": 34962
    },
    {
      "buffer": 0,
      "byteLength": 1213344,
      "byteOffset": 3638784,
      "byteStride": 16,
      "name": "floatBufferViews",
      "target": 34962
    }
  ],
  "buffers": [
    {
      "byteLength": 4852128,
      "uri": "scene.bin"
    }
  ],
  "materials": [
    {
      "doubleSided": true,
      "emissiveFactor": [
        0,
        0,
        0
      ],
      "name": "material_0",
      "pbrMetallicRoughness": {
        "baseColorFactor": [
          0.84426653309999999,
          0.84426653309999999,
          0.84426653309999999,
          1
        ],
        "metallicFactor": 0.74729683619999998,
        "roughnessFactor": 0.52305441190000002
      }
    }
  ],
  "meshes": [
    {
      "primitives": [
        {
          "attributes": {
            "COLOR_0": 2,
            "NORMAL": 1,
            "POSITION": 0
          },
          "indices": 3,
          "material": 0,
          "mode": 4
        }
      ]
    },
    {
      "primitives": [
        {
          "attributes": {
            "COLOR_0": 6,
            "NORMAL": 5,
            "POSITION": 4
          },
          "indices": 7,
          "material": 0,
          "mode": 4
        }
      ]
    },
    {
      "primitives": [
        {
          "attributes": {
            "COLOR_0": 10,
            "NORMAL": 9,
            "POSITION": 8
          },
          "indices": 11,
          "material": 0,
          "mode": 4
        }
      ]
    },
    {
      "primitives": [
        {
          "attributes": {
            "COLOR_0": 14,
            "NORMAL": 13,
            "POSITION": 12
          },
          "indices": 15,
          "material": 0,
          "mode": 4
        }
      ]
    },
    {
      "primitives": [
        {
          "attributes": {
            "COLOR_0": 18,
            "NORMAL": 17,
            "POSITION": 16
          },
          "indices": 19,
          "material": 0,
          "mode": 4
        }
      ]
    }
  ],
  "nodes": [
    {
      "children": [
        1
      ],
      "name": "RootNode (gltf orientation matrix)",
      "rotation": [
        -0.70710678118654746,
        -0,
        -0,
        0.70710678118654757
      ]
    },
    {
      "children": [
        2
      ],
      "name": "RootNode (model correction matrix)"
    },
    {
      "children": [
        3,
        4,
        5,
        6,
        7
      ],
      "name": "astronoaut.obj.cleaner.materialmerger.gles"
    },
    {
      "mesh": 0,
      "name": ""
    },
    {
      "mesh": 1,
      "name": ""
    },
    {
      "mesh": 2,
      "name": ""
    },
    {
      "mesh": 3,
      "name": ""
    },
    {
      "mesh": 4,
      "name": ""
    }
  ],
  "scene": 0,
  "scenes": [
    {
      "name": "OSG_Scene",
      "nodes": [
        0
      ]
    }
  ]
}

