{
  "accessors": [
    {
      "bufferView": 2,
      "componentType": 5126,
      "count": 4555,
      "max": [
        1,
        1,
        1
      ],
      "min": [
        -0.99999982118606567,
        -1,
        -1
      ],
      "type": "VEC3"
    },
    {
      "bufferView": 2,
      "byteOffset": 54660,
      "componentType": 5126,
      "count": 4555,
      "max": [
        1,
        1,
        1
      ],
      "min": [
        -1,
        -1,
        -1
      ],
      "type": "VEC3"
    },
    {
      "bufferView": 3,
      "componentType": 5126,
      "count": 4555,
      "max": [
        1,
        1,
        0.048258505761623383,
        1
      ],
      "min": [
        -1,
        -1,
        -0.048258256167173386,
        1
      ],
      "type": "VEC4"
    },
    {
      "bufferView": 1,
      "componentType": 5126,
      "count": 4555,
      "max": [
        1,
        1
      ],
      "min": [
        0,
        0
      ],
      "type": "VEC2"
    },
    {
      "bufferView": 0,
      "componentType": 5125,
      "count": 25920,
      "max": [
        4554
      ],
      "min": [
        0
      ],
      "type": "SCALAR"
    }
  ],
  "asset": {
    "extras": {
      "author": "zisisbad (https://sketchfab.com/zisisbad)",
      "license": "CC-BY-4.0 (http://creativecommons.org/licenses/by/4.0/)",
      "source": "https://sketchfab.com/3d-models/planet-eros-0e892ff8e8074301992303ab7ee729d5",
      "title": "Planet Eros"
    },
    "generator": "Sketchfab-5.71.0",
    "version": "2.0"
  },
  "bufferViews": [
    {
      "buffer": 0,
      "byteLength": 103680,
      "byteOffset": 0,
      "name": "floatBufferViews",
      "target": 34963
    },
    {
      "buffer": 0,
      "byteLength": 36440,
      "byteOffset": 103680,
      "byteStride": 8,
      "name": "floatBufferViews",
      "target": 34962
    },
    {
      "buffer": 0,
      "byteLength": 109320,
      "byteOffset": 140120,
      "byteStride": 12,
      "name": "floatBufferViews",
      "target": 34962
    },
    {
      "buffer": 0,
      "byteLength": 72880,
      "byteOffset": 249440,
      "byteStride": 16,
      "name": "floatBufferViews",
      "target": 34962
    }
  ],
  "buffers": [
    {
      "byteLength": 322320,
      "uri": "scene.bin"
    }
  ],
  "images": [
    {
      "uri": "textures/Material.001_baseColor.jpeg"
    },
    {
      "uri": "textures/Material.001_metallicRoughness.png"
    },
    {
      "uri": "textures/Material.001_normal.png"
    }
  ],
  "materials": [
    {
      "doubleSided": true,
      "name": "Material.001",
      "normalTexture": {
        "index": 2,
        "scale": 1,
        "texCoord": 0
      },
      "pbrMetallicRoughness": {
        "baseColorFactor": [
          1,
          1,
          1,
          1
        ],
        "baseColorTexture": {
          "index": 0,
          "texCoord": 0
        },
        "metallicFactor": 0,
        "metallicRoughnessTexture": {
          "index": 1,
          "texCoord": 0
        },
        "roughnessFactor": 1
      }
    }
  ],
  "meshes": [
    {
      "name": "Material_001-material",
      "primitives": [
        {
          "attributes": {
            "NORMAL": 1,
            "POSITION": 0,
            "TANGENT": 2,
            "TEXCOORD_0": 3
          },
          "indices": 4,
          "material": 0,
          "mode": 4
        }
      ]
    }
  ],
  "nodes": [
    {
      "children": [
        1
      ],
      "name": "RootNode (gltf orientation matrix)",
      "rotation": [
        -0.70710678118654746,
        -0,
        -0,
        0.70710678118654757
      ]
    },
    {
      "children": [
        2
      ],
      "name": "RootNode (model correction matrix)"
    },
    {
      "children": [
        3,
        5,
        7
      ],
      "name": "Collada visual scene group"
    },
    {
      "children": [
        4
      ],
      "matrix": [
        -0.29086459999999997,
        0.9551712,
        -0.055189059999999998,
        0,
        -0.77110080000000003,
        -0.19988339999999999,
        0.60452470000000003,
        0,
        0.56639320000000004,
        0.21839120000000001,
        0.7946723,
        0,
        11.74541,
        -0.0048558710000000003,
        0.1405082,
        1
      ],
      "name": "Light"
    },
    {
      "name": "Light"
    },
    {
      "children": [
        6
      ],
      "matrix": [
        0.68592070000000005,
        0.72767630000000005,
        -4.0113299999999996e-09,
        0,
        -0.32401350000000001,
        0.3054209,
        0.89539559999999996,
        0,
        0.65155819999999998,
        -0.61417040000000001,
        0.44527139999999998,
        0,
        8.6119500000000002,
        -8.1069449999999996,
        5.8146420000000001,
        1
      ],
      "name": "Camera"
    },
    {
      "name": "Camera-camera"
    },
    {
      "children": [
        8
      ],
      "matrix": [
        1.7545189999999999,
        -1.7351730000000001,
        0,
        0,
        1.7351730000000001,
        1.7545189999999999,
        0,
        0,
        0,
        0,
        2.4676230000000001,
        0,
        0,
        0,
        0,
        1
      ],
      "name": "Sphere"
    },
    {
      "mesh": 0,
      "name": "Material_001-material"
    }
  ],
  "samplers": [
    {
      "magFilter": 9729,
      "minFilter": 9987,
      "wrapS": 10497,
      "wrapT": 10497
    }
  ],
  "scene": 0,
  "scenes": [
    {
      "name": "OSG_Scene",
      "nodes": [
        0
      ]
    }
  ],
  "textures": [
    {
      "sampler": 0,
      "source": 0
    },
    {
      "sampler": 0,
      "source": 1
    },
    {
      "sampler": 0,
      "source": 2
    }
  ]
}

